<?xml version="1.0" encoding="UTF-8" standalone="no"?>
<svg
   xmlns:dc="http://purl.org/dc/elements/1.1/"
   xmlns:cc="http://creativecommons.org/ns#"
   xmlns:rdf="http://www.w3.org/1999/02/22-rdf-syntax-ns#"
   xmlns:svg="http://www.w3.org/2000/svg"
   xmlns="http://www.w3.org/2000/svg"
   xmlns:sodipodi="http://sodipodi.sourceforge.net/DTD/sodipodi-0.dtd"
   xmlns:inkscape="http://www.inkscape.org/namespaces/inkscape"
   viewBox="0 0 48 48"
   id="svg8927"
   version="1.1"
   inkscape:version="0.91 r"
   sodipodi:docname="disconnected.svg"
   inkscape:export-filename="/srv/svn/github/casimir-editor/install.casimir-naturalreaders-launcher/usr/share/casimir-naturalreaders/disconnected.png"
   inkscape:export-xdpi="240"
   inkscape:export-ydpi="240">
  <metadata
     id="metadata8988">
    <rdf:RDF>
      <cc:Work
         rdf:about="">
        <dc:format>image/svg+xml</dc:format>
        <dc:type
           rdf:resource="http://purl.org/dc/dcmitype/StillImage" />
        <dc:title></dc:title>
      </cc:Work>
    </rdf:RDF>
  </metadata>
  <sodipodi:namedview
     pagecolor="#ffffff"
     bordercolor="#666666"
     borderopacity="1"
     objecttolerance="10"
     gridtolerance="10"
     guidetolerance="10"
     inkscape:pageopacity="0"
     inkscape:pageshadow="2"
     inkscape:window-width="1280"
     inkscape:window-height="971"
     id="namedview8986"
     showgrid="false"
     inkscape:zoom="7.2916667"
     inkscape:cx="35.989704"
     inkscape:cy="15.142402"
     inkscape:window-x="0"
     inkscape:window-y="24"
     inkscape:window-maximized="1"
     inkscape:current-layer="svg8927" />
  <defs
     id="defs8929">
    <linearGradient
       id="linearGradient3764"
       x1="1"
       x2="47"
       gradientUnits="userSpaceOnUse"
       gradientTransform="matrix(0,-1,1,0,-1.5e-6,47.999998)">
      <stop
         style="stop-color:#e4e4e4;stop-opacity:1"
         id="stop8932" />
      <stop
         offset="1"
         style="stop-color:#eee;stop-opacity:1"
         id="stop8934" />
    </linearGradient>
    <clipPath
       id="clipPath-024298117">
      <g
         transform="translate(0,-1004.3622)"
         id="g8937">
        <path
           d="m -24 13 c 0 1.105 -0.672 2 -1.5 2 -0.828 0 -1.5 -0.895 -1.5 -2 0 -1.105 0.672 -2 1.5 -2 0.828 0 1.5 0.895 1.5 2 z"
           transform="matrix(15.333333,0,0,11.5,414.99999,878.8622)"
           style="fill:#1890d0"
           id="path8939" />
      </g>
    </clipPath>
    <clipPath
       id="clipPath-035527416">
      <g
         transform="translate(0,-1004.3622)"
         id="g8942">
        <path
           d="m -24 13 c 0 1.105 -0.672 2 -1.5 2 -0.828 0 -1.5 -0.895 -1.5 -2 0 -1.105 0.672 -2 1.5 -2 0.828 0 1.5 0.895 1.5 2 z"
           transform="matrix(15.333333,0,0,11.5,414.99999,878.8622)"
           style="fill:#1890d0"
           id="path8944" />
      </g>
    </clipPath>
  </defs>
  <g
     id="g8946">
    <path
       d="m 36.31 5 c 5.859 4.062 9.688 10.831 9.688 18.5 c 0 12.426 -10.07 22.5 -22.5 22.5 c -7.669 0 -14.438 -3.828 -18.5 -9.688 c 1.037 1.822 2.306 3.499 3.781 4.969 c 4.085 3.712 9.514 5.969 15.469 5.969 c 12.703 0 23 -10.298 23 -23 c 0 -5.954 -2.256 -11.384 -5.969 -15.469 c -1.469 -1.475 -3.147 -2.744 -4.969 -3.781 z m 4.969 3.781 c 3.854 4.113 6.219 9.637 6.219 15.719 c 0 12.703 -10.297 23 -23 23 c -6.081 0 -11.606 -2.364 -15.719 -6.219 c 4.16 4.144 9.883 6.719 16.219 6.719 c 12.703 0 23 -10.298 23 -23 c 0 -6.335 -2.575 -12.06 -6.719 -16.219 z"
       style="opacity:0.05"
       id="path8948" />
    <path
       d="m 41.28 8.781 c 3.712 4.085 5.969 9.514 5.969 15.469 c 0 12.703 -10.297 23 -23 23 c -5.954 0 -11.384 -2.256 -15.469 -5.969 c 4.113 3.854 9.637 6.219 15.719 6.219 c 12.703 0 23 -10.298 23 -23 c 0 -6.081 -2.364 -11.606 -6.219 -15.719 z"
       style="opacity:0.1"
       id="path8950" />
    <path
       d="m 31.25 2.375 c 8.615 3.154 14.75 11.417 14.75 21.13 c 0 12.426 -10.07 22.5 -22.5 22.5 c -9.708 0 -17.971 -6.135 -21.12 -14.75 a 23 23 0 0 0 44.875 -7 a 23 23 0 0 0 -16 -21.875 z"
       style="opacity:0.2"
       id="path8952" />
  </g>
  <g
     id="g8954"
     style="fill:#f4eed7">
    <path
       d="m 24 1 c 12.703 0 23 10.297 23 23 c 0 12.703 -10.297 23 -23 23 -12.703 0 -23 -10.297 -23 -23 0 -12.703 10.297 -23 23 -23 z"
       style="fill:#f4eed7;fill-opacity:1"
       id="path8956" />
  </g>
  <g
     id="g8958">
    <g
       style="clip-path:url(#clipPath-024298117)"
       id="g8960"
       clip-path="url(#clipPath-024298117)">
      <g
         transform="translate(1,1)"
         id="g8962">
        <g
           style="opacity:0.1"
           id="g8964">
          <!-- color: #eeeeee -->
          <g
             id="g8966">
            <path
               d="m 11.531 13 c -0.297 0.031 -0.531 0.297 -0.531 0.594 l 0 10.816 c 0 0.316 0.277 0.594 0.594 0.594 l 5.406 0 l 0 2 l -4 0 l 0 2 l 7.281 0 l 0 -6 l -6.84 0 c -0.211 0 -0.41 -0.195 -0.41 -0.41 l 0 -7.184 c -0.004 -0.188 0.129 -0.371 0.313 -0.406 c 0.023 -0.004 0.066 -0.004 0.094 0 l 11.125 0 c 0.207 0 0.406 0.191 0.406 0.406 l 0 2.875 l 2.031 0 l 0 -4.691 c 0 -0.313 -0.281 -0.594 -0.594 -0.594 m -14.875 0"
               style="fill:#000;fill-opacity:1;stroke:none;fill-rule:nonzero"
               id="path8968" />
            <path
               d="m 21.535 19 c -0.293 0.031 -0.539 0.305 -0.539 0.598 l 0 10.809 c 0 0.313 0.289 0.598 0.602 0.598 l 5.398 0 l 0 2.992 l 4 0 l 0 -2.992 l 5.402 0 c 0.313 0 0.598 -0.285 0.598 -0.598 l 0 -10.809 c 0 -0.316 -0.289 -0.598 -0.598 -0.598 m -13.05 2 c 0.023 -0.004 0.047 -0.004 0.074 0 l 11.145 0 c 0.211 0 0.402 0.191 0.402 0.402 l 0 7.203 c 0 0.207 -0.191 0.398 -0.402 0.398 l -11.145 0 c -0.211 0 -0.402 -0.191 -0.402 -0.398 l 0 -7.203 c -0.004 -0.188 0.145 -0.367 0.328 -0.402 m -0.352 12 l 0 2 l 12 0 l 0 -2 m -12 0"
               style="fill:#000;fill-opacity:1;stroke:none;fill-rule:nonzero"
               id="path8970" />
          </g>
        </g>
      </g>
    </g>
  </g>
  <path
     inkscape:connector-curvature="0"
     id="path8978"
     style="fill:#999999;fill-opacity:1;fill-rule:nonzero;stroke:none"
     d="M 11.531,13 C 11.234,13.031 11,13.297 11,13.594 l 0,10.816 c 0,0.316 0.277,0.594 0.594,0.594 l 5.406,0 0,2 -4,0 0,2 7.281,0 0,-6 -6.84,0 c -0.211,0 -0.41,-0.195 -0.41,-0.41 l 0,-7.184 c -0.004,-0.188 0.129,-0.371 0.313,-0.406 0.023,-0.004 0.066,-0.004 0.094,0 l 11.125,0 c 0.207,0 0.406,0.191 0.406,0.406 l 0,2.875 2.031,0 0,-4.691 C 27,13.281 26.719,13 26.406,13 m -14.875,0" />
  <path
     inkscape:connector-curvature="0"
     id="path8980"
     style="fill:#ff8080;fill-opacity:1;fill-rule:nonzero;stroke:none"
     d="m 21.535,19 c -0.293,0.031 -0.539,0.305 -0.539,0.598 l 0,10.809 c 0,0.313 0.289,0.598 0.602,0.598 l 5.398,0 0,2.992 4,0 0,-2.992 5.402,0 c 0.313,0 0.598,-0.285 0.598,-0.598 l 0,-10.809 C 36.996,19.282 36.707,19 36.398,19 m -13.05,2 c 0.023,-0.004 0.047,-0.004 0.074,0 l 11.145,0 c 0.211,0 0.402,0.191 0.402,0.402 l 0,7.203 c 0,0.207 -0.191,0.398 -0.402,0.398 l -11.145,0 c -0.211,0 -0.402,-0.191 -0.402,-0.398 l 0,-7.203 C 23.016,21.214 23.165,21.035 23.348,21 m -0.352,12 0,2 12,0 0,-2 m -12,0" />
  <g
     id="g8982">
    <path
       d="m 40.03 7.531 c 3.712 4.084 5.969 9.514 5.969 15.469 0 12.703 -10.297 23 -23 23 c -5.954 0 -11.384 -2.256 -15.469 -5.969 4.178 4.291 10.01 6.969 16.469 6.969 c 12.703 0 23 -10.298 23 -23 0 -6.462 -2.677 -12.291 -6.969 -16.469 z"
       style="opacity:0.1"
       id="path8984" />
  </g>
</svg>
