<?xml version="1.0" encoding="UTF-8" standalone="no"?>
<!-- Created with Inkscape (http://www.inkscape.org/) -->

<svg
   xmlns:dc="http://purl.org/dc/elements/1.1/"
   xmlns:cc="http://creativecommons.org/ns#"
   xmlns:rdf="http://www.w3.org/1999/02/22-rdf-syntax-ns#"
   xmlns:svg="http://www.w3.org/2000/svg"
   xmlns="http://www.w3.org/2000/svg"
   xmlns:sodipodi="http://sodipodi.sourceforge.net/DTD/sodipodi-0.dtd"
   xmlns:inkscape="http://www.inkscape.org/namespaces/inkscape"
   width="64"
   height="64"
   id="svg2"
   version="1.1"
   inkscape:version="0.48.4 r9939"
   sodipodi:docname="icons.svg"
   inkscape:export-filename="/srv/svn/github/casimir-editor/install.casimir-editor/usr/share/casimir-editor/src/css/img/play.png"
   inkscape:export-xdpi="90"
   inkscape:export-ydpi="90">
  <defs
     id="defs4" />
  <sodipodi:namedview
     id="base"
     pagecolor="#ffffff"
     bordercolor="#666666"
     borderopacity="1.0"
     inkscape:pageopacity="0.0"
     inkscape:pageshadow="2"
     inkscape:zoom="5.6"
     inkscape:cx="-4.2719997"
     inkscape:cy="8.1906948"
     inkscape:document-units="px"
     inkscape:current-layer="layer1"
     showgrid="false"
     borderlayer="true"
     inkscape:window-width="1280"
     inkscape:window-height="963"
     inkscape:window-x="0"
     inkscape:window-y="37"
     inkscape:window-maximized="1" />
  <metadata
     id="metadata7">
    <rdf:RDF>
      <cc:Work
         rdf:about="">
        <dc:format>image/svg+xml</dc:format>
        <dc:type
           rdf:resource="http://purl.org/dc/dcmitype/StillImage" />
        <dc:title></dc:title>
      </cc:Work>
    </rdf:RDF>
  </metadata>
  <g
     inkscape:label="Layer 1"
     inkscape:groupmode="layer"
     id="layer1"
     transform="translate(0,-988.36218)">
    <rect
       style="color:#000000;fill:#00ff66;fill-opacity:1;fill-rule:nonzero;stroke:none;stroke-width:1;marker:none;visibility:visible;display:inline;overflow:visible;enable-background:accumulate"
       id="rect2985-0"
       width="63.997494"
       height="64.464287"
       x="65.144119"
       y="1080.4872" />
    <text
       xml:space="preserve"
       style="font-size:62.04573822px;font-style:normal;font-weight:normal;line-height:125%;letter-spacing:0px;word-spacing:0px;fill:#ffffff;fill-opacity:1;stroke:none;font-family:Sans"
       x="4.3087306"
       y="1029.2439"
       id="text2987"
       sodipodi:linespacing="125%"><tspan
         sodipodi:role="line"
         id="tspan2989"
         x="4.3087306"
         y="1029.2439"
         style="font-size:5px;font-style:normal;font-variant:normal;font-weight:normal;font-stretch:normal;fill:#ffffff;fill-opacity:1;font-family:OpenDyslexicAlta;-inkscape-font-specification:OpenDyslexicAlta" /></text>
    <g
       id="g3785"
       transform="translate(7.8571429,3.5714286)">
      <rect
         y="987.30005"
         x="88.461945"
         height="64.464287"
         width="63.997494"
         id="rect2985-4"
         style="color:#000000;fill:#00ff66;fill-opacity:1;fill-rule:nonzero;stroke:none;stroke-width:1;marker:none;visibility:visible;display:inline;overflow:visible;enable-background:accumulate" />
      <text
         sodipodi:linespacing="125%"
         id="text2987-0"
         y="1042.1481"
         x="95.194016"
         style="font-size:62.04573822px;font-style:normal;font-weight:normal;line-height:125%;letter-spacing:0px;word-spacing:0px;fill:#ffffff;fill-opacity:1;stroke:none;font-family:Sans"
         xml:space="preserve"><tspan
           style="font-style:normal;font-variant:normal;font-weight:normal;font-stretch:normal;fill:#ffffff;fill-opacity:1;font-family:OpenDyslexicAlta;-inkscape-font-specification:OpenDyslexicAlta"
           y="1042.1481"
           x="95.194016"
           id="tspan2989-6"
           sodipodi:role="line">A</tspan></text>
    </g>
    <text
       xml:space="preserve"
       style="font-size:62.04573822px;font-style:normal;font-weight:normal;line-height:125%;letter-spacing:0px;word-spacing:0px;fill:#ffffff;fill-opacity:1;stroke:none;font-family:Sans"
       x="69.564034"
       y="1117.6884"
       id="text2987-6"
       sodipodi:linespacing="125%"><tspan
         sodipodi:role="line"
         id="tspan2989-5"
         x="69.564034"
         y="1117.6884"
         style="font-size:24px;font-style:normal;font-variant:normal;font-weight:normal;font-stretch:normal;fill:#ffffff;fill-opacity:1;font-family:OpenDyslexicAlta;-inkscape-font-specification:OpenDyslexicAlta">Hola</tspan></text>
    <g
       id="g3109">
      <rect
         y="975.93359"
         x="-123.99749"
         height="64.464287"
         width="63.997494"
         id="rect2985"
         style="color:#000000;fill:#00ff66;fill-opacity:1;fill-rule:nonzero;stroke:none;stroke-width:1;marker:none;visibility:visible;display:inline;overflow:visible;enable-background:accumulate" />
      <g
         transform="translate(-122.8916,-9.0178173)"
         id="g3916">
        <rect
           style="color:#000000;fill:#ffffff;fill-opacity:1;fill-rule:nonzero;stroke:none;stroke-width:1;marker:none;visibility:visible;display:inline;overflow:visible;enable-background:accumulate"
           id="rect3878"
           width="50.714287"
           height="6.4285712"
           x="5.5357137"
           y="1002.7193" />
        <rect
           style="color:#000000;fill:#ffffff;fill-opacity:1;fill-rule:nonzero;stroke:none;stroke-width:1;marker:none;visibility:visible;display:inline;overflow:visible;enable-background:accumulate"
           id="rect3878-2"
           width="50.714287"
           height="6.4285712"
           x="5.5357137"
           y="1013.9692" />
        <g
           id="g3912"
           transform="translate(-0.53571415,0)">
          <rect
             y="1025.2192"
             x="6.0714278"
             height="6.4285712"
             width="36.428574"
             id="rect3878-6"
             style="color:#000000;fill:#ffffff;fill-opacity:1;fill-rule:nonzero;stroke:none;stroke-width:1;marker:none;visibility:visible;display:inline;overflow:visible;enable-background:accumulate" />
          <rect
             y="1025.2192"
             x="47.357143"
             height="6.4285712"
             width="7.142858"
             id="rect3878-4"
             style="color:#000000;fill:#ffffff;fill-opacity:1;fill-rule:nonzero;stroke:none;stroke-width:1;marker:none;visibility:visible;display:inline;overflow:visible;enable-background:accumulate" />
        </g>
      </g>
    </g>
    <rect
       style="color:#000000;fill:#418b5d;fill-opacity:1;fill-rule:nonzero;stroke:none;stroke-width:1;marker:none;visibility:visible;display:inline;overflow:visible;enable-background:accumulate"
       id="rect2985-7"
       width="63.997494"
       height="64.464287"
       x="-31.820187"
       y="874.20154" />
    <g
       id="g3030"
       transform="translate(-35.357142,-113.92857)">
      <path
         inkscape:connector-curvature="0"
         id="path3118"
         d="m 31.979901,993.39354 c -14.891964,0 -26.9687509,12.07676 -26.9687509,26.96876 0,14.8919 12.0767869,26.9687 26.9687509,26.9687 14.891964,0 26.9375,-12.0768 26.9375,-26.9687 0,-14.892 -12.045536,-26.96876 -26.9375,-26.96876 z m 0,3.28125 c 13.078815,0 23.65625,10.60861 23.65625,23.68751 0,13.0788 -10.577435,23.6875 -23.65625,23.6875 -13.078815,0 -23.6875009,-10.6087 -23.6875009,-23.6875 0,-13.0789 10.6086859,-23.68751 23.6875009,-23.68751 z"
         style="fill:#ffffff;fill-opacity:1;stroke:#ffffff;stroke-width:1.20000005;stroke-miterlimit:4;stroke-opacity:1;stroke-dasharray:none" />
      <g
         id="g4006">
        <path
           sodipodi:type="arc"
           style="fill:#ffffff;fill-opacity:1;stroke:none"
           id="path3907"
           sodipodi:cx="25.892857"
           sodipodi:cy="29.892857"
           sodipodi:rx="3.5714285"
           sodipodi:ry="3.5714285"
           d="m 29.464285,29.892857 c 0,1.972445 -1.598983,3.571428 -3.571428,3.571428 -1.972446,0 -3.571429,-1.598983 -3.571429,-3.571428 0,-1.972446 1.598983,-3.571429 3.571429,-3.571429 1.972445,0 3.571428,1.598983 3.571428,3.571429 z"
           transform="matrix(1.1083132,0,0,1.1083132,-7.6883042,976.94124)" />
        <path
           sodipodi:type="arc"
           style="fill:#ffffff;fill-opacity:1;stroke:none"
           id="path3907-2"
           sodipodi:cx="25.892857"
           sodipodi:cy="29.892857"
           sodipodi:rx="3.5714285"
           sodipodi:ry="3.5714285"
           d="m 29.464285,29.892857 c 0,1.972445 -1.598983,3.571428 -3.571428,3.571428 -1.972446,0 -3.571429,-1.598983 -3.571429,-3.571428 0,-1.972446 1.598983,-3.571429 3.571429,-3.571429 1.972445,0 3.571428,1.598983 3.571428,3.571429 z"
           transform="matrix(1.1083132,0,0,1.1083132,3.1969153,976.74332)" />
        <path
           sodipodi:type="arc"
           style="fill:#ffffff;fill-opacity:1;stroke:none"
           id="path3907-4"
           sodipodi:cx="25.892857"
           sodipodi:cy="29.892857"
           sodipodi:rx="3.5714285"
           sodipodi:ry="3.5714285"
           d="m 29.464285,29.892857 c 0,1.972445 -1.598983,3.571428 -3.571428,3.571428 -1.972446,0 -3.571429,-1.598983 -3.571429,-3.571428 0,-1.972446 1.598983,-3.571429 3.571429,-3.571429 1.972445,0 3.571428,1.598983 3.571428,3.571429 z"
           transform="matrix(1.1083132,0,0,1.1083132,14.082134,976.94122)" />
        <path
           sodipodi:type="arc"
           style="fill:#ffffff;fill-opacity:1;stroke:none"
           id="path3907-6"
           sodipodi:cx="25.892857"
           sodipodi:cy="29.892857"
           sodipodi:rx="3.5714285"
           sodipodi:ry="3.5714285"
           d="m 29.464285,29.892857 c 0,1.972445 -1.598983,3.571428 -3.571428,3.571428 -1.972446,0 -3.571429,-1.598983 -3.571429,-3.571428 0,-1.972446 1.598983,-3.571429 3.571429,-3.571429 1.972445,0 3.571428,1.598983 3.571428,3.571429 z"
           transform="matrix(1.1083132,0,0,1.1083132,-7.6883042,996.59399)" />
        <path
           sodipodi:type="arc"
           style="fill:#ffffff;fill-opacity:1;stroke:none"
           id="path3907-2-0"
           sodipodi:cx="25.892857"
           sodipodi:cy="29.892857"
           sodipodi:rx="3.5714285"
           sodipodi:ry="3.5714285"
           d="m 29.464285,29.892857 c 0,1.972445 -1.598983,3.571428 -3.571428,3.571428 -1.972446,0 -3.571429,-1.598983 -3.571429,-3.571428 0,-1.972446 1.598983,-3.571429 3.571429,-3.571429 1.972445,0 3.571428,1.598983 3.571428,3.571429 z"
           transform="matrix(1.1083132,0,0,1.1083132,3.1969153,996.39608)" />
        <path
           sodipodi:type="arc"
           style="fill:#ffffff;fill-opacity:1;stroke:none"
           id="path3907-4-4"
           sodipodi:cx="25.892857"
           sodipodi:cy="29.892857"
           sodipodi:rx="3.5714285"
           sodipodi:ry="3.5714285"
           d="m 29.464285,29.892857 c 0,1.972445 -1.598983,3.571428 -3.571428,3.571428 -1.972446,0 -3.571429,-1.598983 -3.571429,-3.571428 0,-1.972446 1.598983,-3.571429 3.571429,-3.571429 1.972445,0 3.571428,1.598983 3.571428,3.571429 z"
           transform="matrix(1.1083132,0,0,1.1083132,14.082134,996.59398)" />
        <path
           sodipodi:type="arc"
           style="fill:#ffffff;fill-opacity:1;stroke:none"
           id="path3907-8"
           sodipodi:cx="25.892857"
           sodipodi:cy="29.892857"
           sodipodi:rx="3.5714285"
           sodipodi:ry="3.5714285"
           d="m 29.464285,29.892857 c 0,1.972445 -1.598983,3.571428 -3.571428,3.571428 -1.972446,0 -3.571429,-1.598983 -3.571429,-3.571428 0,-1.972446 1.598983,-3.571429 3.571429,-3.571429 1.972445,0 3.571428,1.598983 3.571428,3.571429 z"
           transform="matrix(1.1083132,0,0,1.1083132,-7.6883042,986.76671)" />
        <path
           sodipodi:type="arc"
           style="fill:#ffffff;fill-opacity:1;stroke:none"
           id="path3907-2-9"
           sodipodi:cx="25.892857"
           sodipodi:cy="29.892857"
           sodipodi:rx="3.5714285"
           sodipodi:ry="3.5714285"
           d="m 29.464285,29.892857 c 0,1.972445 -1.598983,3.571428 -3.571428,3.571428 -1.972446,0 -3.571429,-1.598983 -3.571429,-3.571428 0,-1.972446 1.598983,-3.571429 3.571429,-3.571429 1.972445,0 3.571428,1.598983 3.571428,3.571429 z"
           transform="matrix(1.1083132,0,0,1.1083132,3.1969153,986.5688)" />
        <path
           sodipodi:type="arc"
           style="fill:#ffffff;fill-opacity:1;stroke:none"
           id="path3907-4-9"
           sodipodi:cx="25.892857"
           sodipodi:cy="29.892857"
           sodipodi:rx="3.5714285"
           sodipodi:ry="3.5714285"
           d="m 29.464285,29.892857 c 0,1.972445 -1.598983,3.571428 -3.571428,3.571428 -1.972446,0 -3.571429,-1.598983 -3.571429,-3.571428 0,-1.972446 1.598983,-3.571429 3.571429,-3.571429 1.972445,0 3.571428,1.598983 3.571428,3.571429 z"
           transform="matrix(1.1083132,0,0,1.1083132,14.082134,986.7667)" />
      </g>
    </g>
    <rect
       style="color:#000000;fill:#418b5d;fill-opacity:1;fill-rule:nonzero;stroke:none;stroke-width:1;marker:none;visibility:visible;display:inline;overflow:visible;enable-background:accumulate"
       id="rect2985-7-9"
       width="63.997494"
       height="64.464287"
       x="-69.4636"
       y="1067.7167" />
    <path
       style="fill:#418b5d;fill-opacity:1;stroke:#ffffff;stroke-width:1.20000005;stroke-miterlimit:4;stroke-opacity:1;stroke-dasharray:none"
       d="m -107.84152,1072.5363 c -14.89196,0 -26.96875,12.0767 -26.96875,26.9687 0,14.8919 12.07679,26.9687 26.96875,26.9687 14.891967,0 26.937503,-12.0768 26.937503,-26.9687 0,-14.892 -12.045536,-26.9687 -26.937503,-26.9687 z m 0,3.2813 c 13.078818,0 23.656253,10.6085 23.656253,23.6874 0,13.0788 -10.577435,23.6875 -23.656253,23.6875 -13.07881,0 -23.6875,-10.6087 -23.6875,-23.6875 0,-13.0789 10.60869,-23.6874 23.6875,-23.6874 z"
       id="path3118-4"
       inkscape:connector-curvature="0" />
    <path
       style="fill:#418b5d;fill-opacity:1;stroke:none"
       d="m -125.95782,1102.3642 9.86328,11.698 26.712722,-23.2809 -3.815087,-3.9113 -22.703645,18.5863 -5.75886,-6.6803 z"
       id="path3123"
       inkscape:connector-curvature="0"
       sodipodi:nodetypes="ccccccc" />
    <rect
       style="color:#000000;fill:#418b5d;fill-opacity:1;fill-rule:nonzero;stroke:none;stroke-width:1;marker:none;visibility:visible;display:inline;overflow:visible;enable-background:accumulate"
       id="rect2985-7-0"
       width="63.997494"
       height="64.464287"
       x="214.29645"
       y="973.40125" />
    <g
       id="g3026"
       transform="translate(-0.75056774,-0.2705345)">
      <path
         inkscape:connector-curvature="0"
         id="path3118-8"
         d="m 32.587056,994.32209 c -14.891964,0 -26.9687513,12.07671 -26.9687513,26.96871 0,14.8919 12.0767873,26.9687 26.9687513,26.9687 14.891964,0 26.9375,-12.0768 26.9375,-26.9687 0,-14.892 -12.045536,-26.96872 -26.9375,-26.96872 z m 0,3.28125 c 13.078815,0 23.65625,10.60856 23.65625,23.68746 0,13.0788 -10.577435,23.6875 -23.65625,23.6875 -13.078815,0 -23.6875013,-10.6087 -23.6875013,-23.6875 0,-13.0789 10.6086863,-23.68746 23.6875013,-23.68746 z"
         style="fill:#ffffff;fill-opacity:1;stroke:#ffffff;stroke-width:1.20000005;stroke-miterlimit:4;stroke-opacity:1;stroke-dasharray:none" />
      <path
         inkscape:transform-center-y="0.010318641"
         inkscape:transform-center-x="-4.3094527"
         transform="matrix(0.25403096,0,0,0.25403096,59.194829,1045.6468)"
         d="m -141.78571,-37.071433 -0.0704,-58.887926 -0.0704,-58.887931 51.033635,29.38301 51.033637,29.383002 -50.963245,29.504922 z"
         inkscape:randomized="0"
         inkscape:rounded="0"
         inkscape:flatsided="false"
         sodipodi:arg2="3.1403973"
         sodipodi:arg1="2.0931998"
         sodipodi:r2="33.998985"
         sodipodi:r1="67.997971"
         sodipodi:cy="-96"
         sodipodi:cx="-107.85714"
         sodipodi:sides="3"
         id="path3108"
         style="fill:#ffffff;fill-opacity:1;stroke:none"
         sodipodi:type="star" />
    </g>
  </g>
</svg>
